<?xml version="1.0" encoding="utf-8"?>
<!-- Generator: Adobe Illustrator 25.0.0, SVG Export Plug-In . SVG Version: 6.00 Build 0)  -->
<svg version="1.1" id="Layer_1" xmlns="http://www.w3.org/2000/svg" xmlns:xlink="http://www.w3.org/1999/xlink" x="0px" y="0px"
	 viewBox="0 0 379 64" style="enable-background:new 0 0 379 64;" xml:space="preserve">
<style type="text/css">
	.st0{fill:#FFFFFF;}
	.st1{fill:#F70612;}
	.st2{fill:#00C3FF;}
</style>
<g>
	<path class="st0" d="M9.6,8.1h44.2c3.7,0,6.6,3,6.6,6.6l0,0c0,3.7-3,6.6-6.6,6.6h-7c-3.7,0-6.6,3-6.6,6.6v31.3c0,3.7-3,6.6-6.6,6.6
		h-3c-3.7,0-6.6-3-6.6-6.6V28c0-3.7-3-6.6-6.6-6.6H9.6c-3.7,0-6.6-3-6.6-6.6l0,0C3,11.1-6.8-10.9,9.6,8.1z"/>
	<path class="st1" d="M70.3,10.5h35.1c2.1,0,3.8,1.7,3.8,3.8v24.9c0,2.1-1.7,3.8-3.8,3.8l0,0c-3.4,0-5.1,4.1-2.7,6.6l5.4,5.5
		c0.7,0.7,1.1,1.7,1.1,2.7v1.8c0,2.1-1.7,3.8-3.8,3.8h-6.7c-1,0-2-0.4-2.7-1.1L85.2,51.5c-2.4-2.4-6.6-0.7-6.6,2.7v5.4
		c0,2.1-1.7,3.8-3.8,3.8h-4.5c-2.1,0-3.8-1.7-3.8-3.8V14.4C66.5,12.2,68.2,10.5,70.3,10.5z M78.6,26.5v0.6c0,2.1,1.7,3.8,3.8,3.8
		h10.8c2.1,0,3.8-1.7,3.8-3.8v-0.6c0-2.1-1.7-3.8-3.8-3.8H82.5C80.3,22.7,78.6,24.4,78.6,26.5z"/>
	<path class="st0" d="M120.6,10.5h34.3c2.3,0,4.2,1.9,4.2,4.2v44.5c0,2.3-1.9,4.2-4.2,4.2h-3.7c-2.3,0-4.2-1.9-4.2-4.2v-1.7
		c0-2.3-1.9-4.2-4.2-4.2h-10c-2.3,0-4.2,1.9-4.2,4.2v1.7c0,2.3-1.9,4.2-4.2,4.2h-3.7c-2.3,0-4.2-1.9-4.2-4.2V14.8
		C116.4,12.4,118.3,10.5,120.6,10.5z M128.5,26.9v10c0,2.3,1.9,4.2,4.2,4.2h10c2.3,0,4.2-1.9,4.2-4.2v-10c0-2.3-1.9-4.2-4.2-4.2h-10
		C130.4,22.7,128.5,24.6,128.5,26.9z"/>
	<path class="st0" d="M166.3,10.5h42.8v32.5l-30.6-8.5v29h-12.2L166.3,10.5L166.3,10.5z M178.4,22.7v8.3h18.5v-8.3H178.4z"/>
	<path class="st0" d="M216.3,10.5H259v12.2h-30.6v28.7h18.5l12.2-12L246,33.2L259,63.5h-42.8V10.5z"/>
	<path class="st0" d="M272.1,10.5L272.1,10.5c3.4,0,6.1,2.7,6.1,6.1l0,28.7c0,3.4,2.7,6.1,6.1,6.1h6.3c3.4,0,6.1-2.7,6.1-6.1V16.6
		c0-3.4,2.7-6.1,6.1-6.1l0,0c3.4,0,6.1,2.7,6.1,6.1v40.9c0,3.4-2.7,6.1-6.1,6.1h-30.7c-3.4,0-6.1-2.7-6.1-6.1V16.6
		C266,13.2,268.7,10.5,272.1,10.5z"/>
	<path class="st0" d="M322.1,10.5L322.1,10.5c3.4,0,6.1,2.7,6.1,6.1v40.9c0,3.4-2.7,6.1-6.1,6.1l0,0c-3.4,0-6.1-2.7-6.1-6.1V16.6
		C316,13.2,318.7,10.5,322.1,10.5z"/>
	<path class="st2" d="M336.1,10.5h12.2v5.3l18.5,18.6V10.5h12.2v53h-12.2l-3.2-24.2l-15.2-4.6v28.8h-12.2L336.1,10.5L336.1,10.5z"/>
</g>
</svg>
